<svg width="746" height="620" viewBox="0 0 746 620" fill="none" xmlns="http://www.w3.org/2000/svg">
<rect x="373" y="495" width="124" height="125" fill="white" fill-opacity="0.8"/>
<rect x="374.5" y="496.5" width="121" height="122" stroke="black" stroke-opacity="0.2" stroke-width="3"/>
<rect x="622" y="495" width="124" height="125" fill="white" fill-opacity="0.8"/>
<rect x="623.5" y="496.5" width="121" height="122" stroke="black" stroke-opacity="0.2" stroke-width="3"/>
<rect x="497" y="495" width="125" height="125" fill="white" fill-opacity="0.8"/>
<rect x="498.5" y="496.5" width="122" height="122" stroke="black" stroke-opacity="0.2" stroke-width="3"/>
<rect x="497" y="372" width="125" height="124" fill="white" fill-opacity="0.8"/>
<rect x="498.5" y="373.5" width="122" height="121" stroke="black" stroke-opacity="0.2" stroke-width="3"/>
<rect x="248" y="495" width="125" height="125" fill="white" fill-opacity="0.8"/>
<rect x="249.5" y="496.5" width="122" height="122" stroke="black" stroke-opacity="0.2" stroke-width="3"/>
<rect x="373" y="371" width="124" height="124" fill="white" fill-opacity="0.8"/>
<rect x="374.5" y="372.5" width="121" height="121" stroke="black" stroke-opacity="0.2" stroke-width="3"/>
<rect x="622" y="371" width="124" height="124" fill="white" fill-opacity="0.8"/>
<rect x="623.5" y="372.5" width="121" height="121" stroke="black" stroke-opacity="0.2" stroke-width="3"/>
<rect x="124" y="372" width="124" height="124" fill="white" fill-opacity="0.8"/>
<rect x="125.5" y="373.5" width="121" height="121" stroke="black" stroke-opacity="0.2" stroke-width="3"/>
<rect x="248" y="371" width="124" height="124" fill="white" fill-opacity="0.8"/>
<rect x="249.5" y="372.5" width="121" height="121" stroke="black" stroke-opacity="0.2" stroke-width="3"/>
<rect x="497" y="248" width="124" height="124" fill="white" fill-opacity="0.8"/>
<rect x="498.5" y="249.5" width="121" height="121" stroke="black" stroke-opacity="0.2" stroke-width="3"/>
<rect x="248" y="248" width="124" height="124" fill="white" fill-opacity="0.8"/>
<rect x="249.5" y="249.5" width="121" height="121" stroke="black" stroke-opacity="0.2" stroke-width="3"/>
<rect x="498" y="124" width="124" height="124" fill="white" fill-opacity="0.8"/>
<rect x="499.5" y="125.5" width="121" height="121" stroke="black" stroke-opacity="0.2" stroke-width="3"/>
<rect x="622" y="124" width="124" height="124" fill="white" fill-opacity="0.8"/>
<rect x="623.5" y="125.5" width="121" height="121" stroke="black" stroke-opacity="0.2" stroke-width="3"/>
<rect x="374" width="124" height="124" fill="white" fill-opacity="0.8"/>
<rect x="375.5" y="1.5" width="121" height="121" stroke="black" stroke-opacity="0.2" stroke-width="3"/>
<rect x="622" width="124" height="124" fill="white" fill-opacity="0.8"/>
<rect x="623.5" y="1.5" width="121" height="121" stroke="black" stroke-opacity="0.2" stroke-width="3"/>
<rect x="372" y="248" width="124" height="124" fill="white" fill-opacity="0.8"/>
<rect x="373.5" y="249.5" width="121" height="121" stroke="black" stroke-opacity="0.2" stroke-width="3"/>
<rect x="622" y="247" width="124" height="125" fill="white" fill-opacity="0.8"/>
<rect x="623.5" y="248.5" width="121" height="122" stroke="black" stroke-opacity="0.2" stroke-width="3"/>
<rect x="124" y="495" width="124" height="124" fill="white" fill-opacity="0.8"/>
<rect x="125.5" y="496.5" width="121" height="121" stroke="black" stroke-opacity="0.2" stroke-width="3"/>
<rect y="495" width="124" height="124" fill="white" fill-opacity="0.8"/>
<rect x="1.5" y="496.5" width="121" height="121" stroke="black" stroke-opacity="0.2" stroke-width="3"/>
<rect y="248" width="124" height="124" fill="white" fill-opacity="0.8"/>
<rect x="1.5" y="249.5" width="121" height="121" stroke="black" stroke-opacity="0.2" stroke-width="3"/>
<path d="M232.859 618.319C235.054 619.05 240.616 620 240.616 620H337.685C346.76 611.009 352.078 596.17 356.249 583.817C362.031 566.639 361.446 546.39 354.639 529.578C353.249 526.142 349.224 518.175 345.637 511.961C334.44 492.591 331.659 484.769 331.659 472.854C331.659 463.498 330.634 458.966 326.024 447.27C322.175 437.508 321.123 426.071 325.438 421.174C327.853 418.433 331.15 414.618 331.621 406.988C331.913 402.237 329.244 398.687 327.853 395.544C326.317 391.962 327.122 393.104 327.853 386.745C329.39 373.953 329.61 370.152 329.171 366.204C328.073 357.433 325.658 357.871 314.534 368.617C306.41 376.511 306.41 376.511 300.262 375.853C296.384 375.342 291.919 375.342 287.821 375.78C281.527 376.511 281.527 376.511 274.428 369.494C263.962 358.968 260.45 357.652 259.059 363.646C258.327 366.497 258.913 377.388 260.23 386.964C261.035 392.885 260.962 393.982 259.864 397.198C256.79 405.823 256.351 414.01 263.377 422.27C267.988 431.115 267.988 433.235 263.011 445.516C257.961 457.942 257.083 461.963 256.351 474.462C255.546 488.643 254.375 491.713 242.153 512.985C230.736 532.867 228.175 541.201 228.175 558.744C228.175 567.954 228.468 571.244 229.785 576.507C231.761 584.548 235.054 592.808 238.494 598.436C239.884 600.775 240.909 602.895 240.616 603.114C240.397 603.334 236.664 601.799 232.346 599.679C225.613 596.389 223.564 594.927 218.514 589.884C209.586 580.966 205.341 571.536 203.511 556.697C201.974 543.613 204.316 530.528 212.001 509.768C221.369 484.623 223.71 473.951 223.125 460.427C222.393 445.808 218.953 437.255 210.244 428.63C201.535 419.931 192.607 416.423 181.19 417.08C170.139 417.738 161.064 424.025 157.478 433.601C155.062 439.96 155.648 447.855 158.941 454.141C164.577 464.667 176.872 469.272 182.58 462.986C186.605 458.454 184.19 452.314 177.604 450.632C173.871 449.682 172.188 447.635 171.676 443.469C170.944 437.548 176.14 433.016 183.605 433.016C192.46 433.016 201.243 439.741 205.121 449.609C206.585 453.264 206.805 455.091 206.805 463.351C206.731 474.901 205.634 479.652 197.583 501.728C189.24 524.534 186.752 535.499 186.752 549.461C186.752 568.539 192.46 585.644 202.999 598.144C210.464 606.989 222.247 614.956 232.859 618.319Z" fill="black"/>
<path d="M428.044 608.304C430.386 611.667 433.899 617.807 438.73 620H687.121H692.464C698.538 617.588 703.441 609.255 701.612 602.31C699.27 593.319 691.439 574.314 687.121 567.15C683.535 561.302 679.949 557.063 667.215 543.686C654.773 530.601 653.456 528.701 651.041 520.148C649.577 514.812 649.577 514.812 655.359 513.058C659.677 511.742 667.141 507.21 668.605 505.017C669.191 504.14 669.776 502.093 669.922 500.558C670.142 497.78 670.288 497.707 675.192 495.661C684.633 491.933 692.464 484.111 692.464 478.483C692.464 475.339 689.39 470.149 680.169 458.088C666.995 440.691 658.14 424.975 645.259 395.736C630.549 362.403 625.499 356.044 606.983 346.98C601.201 344.202 595.712 340.913 593.59 339.012C590.736 336.527 589.272 335.723 586.345 335.357C582.685 334.845 582.685 334.845 582.685 331.702C582.685 328.851 582.905 328.486 584.369 328.486C585.247 328.413 587.662 327.828 589.784 327.097C592.931 326.074 593.81 326.001 595.346 326.732C598.054 328.194 606.471 326.001 620.156 320.372C638.599 312.697 641.892 307.872 641.014 289.525C640.795 284.846 640.795 280.972 640.941 280.972C641.966 280.972 646.592 288.235 646.592 294.448C646.519 301.831 644.234 305.752 646.064 303.267C647.967 300.636 648.772 294.203 647.967 287.843C646.796 279.145 644.234 272.274 636.184 256.485C630.768 245.958 628.134 239.672 625.206 230.535C619.351 212.553 616.278 207.07 606.471 197.202C597.615 188.284 591.541 184.264 582.393 181.486C576.172 179.513 570.317 179.878 563.73 182.51C559.12 184.337 559.12 184.337 554.655 182.217C546.678 178.489 539.433 179.366 527.064 185.58C519.16 189.527 511.842 195.448 504.889 203.416C499.4 209.775 494.497 219.351 489.228 233.824C488.203 236.675 484.105 245.301 480.226 253.049C470.492 271.981 467.638 280.826 467.711 291.352C467.711 295.811 468.077 297.785 469.467 300.489C471.078 303.706 473.639 305.46 473.054 302.902C471.119 294.448 471.716 284.517 474.789 277.281C477.863 270.044 481.397 270.469 480.226 273.466C476.932 281.726 476.262 302.371 480.226 307.8C486.03 315.751 488.381 317.338 501.514 323.06C512.419 327.811 517.624 327.682 521.722 326.366C524.137 325.635 525.015 325.708 528.528 327.024C530.724 327.828 533.578 328.486 534.895 328.486C537.457 328.486 537.75 329.071 536.871 333.383C536.505 335.138 535.847 335.723 532.846 336.746C530.87 337.477 527.577 339.524 525.601 341.278C523.625 343.032 518.794 345.956 514.916 347.857C498.815 355.532 492.521 361.307 486.447 374.026C484.251 378.485 476.786 396.54 469.76 414.01C455.269 450.048 453.806 453.483 446.634 466.568C435.948 486.158 435.436 487.912 438.73 492.737C440.706 495.734 447.658 499.754 453.074 500.997C457.538 502.02 469.175 507.502 470.638 509.33C471.517 510.353 475.11 511.716 474.305 515.078C473.5 518.368 472.043 519.211 472.995 521.623C473.58 523.158 471.809 524.534 471.59 525.119C470.565 528.116 454.757 554.139 446.926 565.688C432.948 586.229 426.727 597.047 426.288 601.433C425.995 604.65 426.215 605.6 428.044 608.304Z" fill="black"/>
</svg>
