<svg width="749" height="623" viewBox="0 0 749 623" fill="none" xmlns="http://www.w3.org/2000/svg">
<rect x="374.5" y="496.5" width="124" height="125" fill="white" fill-opacity="0.8" stroke="black" stroke-opacity="0.2" stroke-width="3"/>
<rect x="623.5" y="496.5" width="124" height="125" fill="white" fill-opacity="0.8" stroke="black" stroke-opacity="0.2" stroke-width="3"/>
<rect x="498.5" y="496.5" width="125" height="125" fill="white" fill-opacity="0.8" stroke="black" stroke-opacity="0.2" stroke-width="3"/>
<rect x="498.5" y="373.5" width="125" height="124" fill="white" fill-opacity="0.8" stroke="black" stroke-opacity="0.2" stroke-width="3"/>
<rect x="249.5" y="496.5" width="125" height="125" fill="white" fill-opacity="0.8" stroke="black" stroke-opacity="0.2" stroke-width="3"/>
<rect x="374.5" y="372.5" width="124" height="124" fill="white" fill-opacity="0.8" stroke="black" stroke-opacity="0.2" stroke-width="3"/>
<rect x="623.5" y="372.5" width="124" height="124" fill="white" fill-opacity="0.8" stroke="black" stroke-opacity="0.2" stroke-width="3"/>
<rect x="125.5" y="372.5" width="124" height="124" fill="white" fill-opacity="0.8" stroke="black" stroke-opacity="0.2" stroke-width="3"/>
<rect x="249.5" y="372.5" width="124" height="124" fill="white" fill-opacity="0.8" stroke="black" stroke-opacity="0.2" stroke-width="3"/>
<rect x="499.5" y="247.5" width="124" height="124" fill="white" fill-opacity="0.8" stroke="black" stroke-opacity="0.2" stroke-width="3"/>
<rect x="249.5" y="247.5" width="124" height="124" fill="white" fill-opacity="0.8" stroke="black" stroke-opacity="0.2" stroke-width="3"/>
<rect x="499.5" y="125.5" width="124" height="124" fill="white" fill-opacity="0.8" stroke="black" stroke-opacity="0.2" stroke-width="3"/>
<rect x="623.5" y="125.5" width="124" height="124" fill="white" fill-opacity="0.8" stroke="black" stroke-opacity="0.2" stroke-width="3"/>
<rect x="374.5" y="1.5" width="124" height="124" fill="white" fill-opacity="0.8" stroke="black" stroke-opacity="0.2" stroke-width="3"/>
<rect x="623.5" y="1.5" width="124" height="124" fill="white" fill-opacity="0.8" stroke="black" stroke-opacity="0.2" stroke-width="3"/>
<rect x="374.5" y="247.5" width="124" height="124" fill="white" fill-opacity="0.8" stroke="black" stroke-opacity="0.2" stroke-width="3"/>
<rect x="623.5" y="247.5" width="124" height="125" fill="white" fill-opacity="0.8" stroke="black" stroke-opacity="0.2" stroke-width="3"/>
<rect x="125.5" y="497.5" width="124" height="124" fill="white" fill-opacity="0.8" stroke="black" stroke-opacity="0.2" stroke-width="3"/>
<rect x="1.5" y="497.5" width="124" height="124" fill="white" fill-opacity="0.8" stroke="black" stroke-opacity="0.2" stroke-width="3"/>
<rect x="1.5" y="247.5" width="124" height="124" fill="white" fill-opacity="0.8" stroke="black" stroke-opacity="0.2" stroke-width="3"/>
<path d="M284.359 619.819C286.554 620.55 292.116 621.5 292.116 621.5H389.185C398.26 612.509 403.578 597.67 407.749 585.317C413.531 568.139 412.946 547.89 406.139 531.078C404.749 527.642 400.724 519.675 397.137 513.461C385.94 494.091 383.159 486.269 383.159 474.354C383.159 464.998 382.134 460.466 377.524 448.77C373.675 439.008 372.623 427.571 376.938 422.674C379.353 419.933 382.65 416.118 383.121 408.488C383.413 403.737 380.744 400.187 379.353 397.044C377.817 393.462 378.622 394.604 379.353 388.245C380.89 375.453 381.11 371.652 380.671 367.704C379.573 358.933 377.158 359.371 366.034 370.117C357.91 378.011 357.91 378.011 351.762 377.353C347.884 376.842 343.419 376.842 339.321 377.28C333.027 378.011 333.027 378.011 325.928 370.994C315.462 360.468 311.95 359.152 310.559 365.146C309.827 367.997 310.413 378.888 311.73 388.464C312.535 394.385 312.462 395.482 311.364 398.698C308.29 407.323 307.851 415.51 314.877 423.77C319.488 432.615 319.488 434.735 314.511 447.016C309.461 459.442 308.583 463.463 307.851 475.962C307.046 490.143 305.875 493.213 293.653 514.485C282.236 534.367 279.675 542.701 279.675 560.244C279.675 569.454 279.968 572.744 281.285 578.007C283.261 586.048 286.554 594.308 289.994 599.936C291.384 602.275 292.409 604.395 292.116 604.614C291.897 604.834 288.164 603.299 283.846 601.179C277.113 597.889 275.064 596.427 270.014 591.384C261.086 582.466 256.841 573.036 255.011 558.197C253.474 545.113 255.816 532.028 263.501 511.268C272.869 486.123 275.21 475.451 274.625 461.927C273.893 447.308 270.453 438.755 261.744 430.13C253.035 421.431 244.107 417.923 232.69 418.58C221.639 419.238 212.564 425.525 208.978 435.101C206.562 441.46 207.148 449.355 210.441 455.641C216.077 466.167 228.372 470.772 234.08 464.486C238.105 459.954 235.69 453.814 229.104 452.132C225.371 451.182 223.688 449.135 223.176 444.969C222.444 439.048 227.64 434.516 235.105 434.516C243.96 434.516 252.743 441.241 256.621 451.109C258.085 454.764 258.305 456.591 258.305 464.851C258.231 476.401 257.134 481.152 249.083 503.228C240.74 526.034 238.252 536.999 238.252 550.961C238.252 570.039 243.96 587.144 254.499 599.644C261.964 608.489 273.747 616.456 284.359 619.819Z" fill="black"/>
<path d="M429.544 609.804C431.886 613.167 435.399 619.307 440.23 621.5H688.621H693.964C700.038 619.088 704.942 610.755 703.112 603.81C700.77 594.819 692.939 575.814 688.621 568.65C685.035 562.802 681.449 558.563 668.715 545.186C656.273 532.101 654.956 530.201 652.541 521.648C651.077 516.312 651.077 516.312 656.859 514.558C661.177 513.242 668.641 508.71 670.105 506.517C670.691 505.64 671.276 503.593 671.422 502.058C671.642 499.28 671.788 499.207 676.692 497.161C686.133 493.433 693.964 485.611 693.964 479.983C693.964 476.839 690.89 471.649 681.669 459.588C668.495 442.191 659.64 426.475 646.759 397.236C632.049 363.903 626.999 357.544 608.483 348.48C602.701 345.702 597.212 342.413 595.09 340.512C592.236 338.027 590.772 337.223 587.845 336.857C584.185 336.345 584.185 336.345 584.185 333.202C584.185 330.351 584.405 329.986 585.869 329.986C586.747 329.913 589.162 329.328 591.284 328.597C594.431 327.574 595.31 327.501 596.846 328.232C599.554 329.694 607.971 327.501 621.656 321.872C640.099 314.197 643.392 309.372 642.514 291.025C642.295 286.346 642.295 282.472 642.441 282.472C643.466 282.472 648.092 289.735 648.092 295.948C648.019 303.331 645.734 307.252 647.564 304.767C649.467 302.136 650.272 295.703 649.467 289.343C648.296 280.645 645.734 273.774 637.684 257.985C632.268 247.458 629.634 241.172 626.706 232.035C620.851 214.053 617.778 208.57 607.971 198.702C599.115 189.784 593.041 185.764 583.893 182.986C577.672 181.013 571.817 181.378 565.23 184.01C560.62 185.837 560.62 185.837 556.155 183.717C548.178 179.989 540.933 180.866 528.564 187.08C520.66 191.027 513.342 196.948 506.389 204.916C500.9 211.275 495.997 220.851 490.728 235.324C489.703 238.175 485.605 246.801 481.726 254.549C471.992 273.481 469.138 282.326 469.211 292.852C469.211 297.311 469.577 299.285 470.967 301.989C472.578 305.206 475.139 306.96 474.554 304.402C472.619 295.948 473.216 286.017 476.289 278.781C479.363 271.544 482.897 271.969 481.726 274.966C478.432 283.226 477.762 303.871 481.726 309.3C487.53 317.251 489.881 318.838 503.014 324.56C513.919 329.311 519.124 329.182 523.222 327.866C525.637 327.135 526.515 327.208 530.028 328.524C532.224 329.328 535.078 329.986 536.395 329.986C538.957 329.986 539.25 330.571 538.371 334.883C538.005 336.638 537.347 337.223 534.346 338.246C532.37 338.977 529.077 341.024 527.101 342.778C525.125 344.532 520.295 347.456 516.416 349.357C500.315 357.032 494.021 362.807 487.947 375.526C485.751 379.985 478.286 398.04 471.26 415.51C456.769 451.548 455.306 454.983 448.134 468.068C437.448 487.658 436.936 489.412 440.23 494.237C442.206 497.234 449.158 501.254 454.574 502.497C459.038 503.52 470.675 509.002 472.138 510.83C473.017 511.853 476.61 513.216 475.805 516.578C475 519.868 473.543 520.711 474.495 523.123C475.08 524.658 473.309 526.034 473.09 526.619C472.065 529.616 456.257 555.639 448.426 567.188C434.448 587.729 428.227 598.547 427.788 602.933C427.495 606.15 427.715 607.1 429.544 609.804Z" fill="black"/>
</svg>
