<svg width="390" height="380" viewBox="0 0 390 380" fill="none" xmlns="http://www.w3.org/2000/svg">
<g clip-path="url(#clip0_2049_94)">
<circle cx="190.139" cy="190" r="187.5" stroke="black" stroke-width="5"/>
<mask id="mask0_2049_94" style="mask-type:alpha" maskUnits="userSpaceOnUse" x="-51" y="51" width="441" height="449">
<path d="M109.623 487.63C112.018 491.051 115.611 497.298 120.551 499.529H374.602H380.067C386.279 497.074 391.295 488.597 389.423 481.532C387.028 472.384 379.019 453.049 374.602 445.761C370.935 439.811 367.267 435.498 354.242 421.889C341.517 408.577 340.17 406.644 337.7 397.943C336.203 392.514 336.203 392.514 342.116 390.729C346.532 389.39 354.167 384.78 355.664 382.548C356.263 381.656 356.862 379.574 357.012 378.012C357.236 375.186 357.386 375.112 362.401 373.029C372.057 369.237 380.067 361.279 380.067 355.553C380.067 352.355 376.923 347.075 367.491 334.805C354.018 317.105 344.961 301.116 331.786 271.369C316.741 237.457 311.576 230.987 292.638 221.766C286.725 218.94 281.111 215.593 278.94 213.66C276.021 211.131 274.524 210.313 271.53 209.941C267.787 209.421 267.787 209.421 267.787 206.223C267.787 203.323 268.012 202.951 269.509 202.951C270.407 202.877 272.877 202.282 275.048 201.538C278.266 200.497 279.165 200.422 280.737 201.166C283.506 202.653 292.114 200.422 306.112 194.696C324.975 186.888 328.343 181.979 327.445 163.313C327.22 158.554 327.22 154.612 327.37 154.612C328.418 154.612 333.15 162.001 333.15 168.322C333.075 175.833 330.738 179.823 332.61 177.294C334.556 174.617 335.379 168.073 334.556 161.603C333.358 152.753 330.738 145.762 322.505 129.699C316.965 118.99 314.271 112.594 311.277 103.298C305.288 85.004 302.145 79.4265 292.114 69.3869C283.057 60.314 276.844 56.2238 267.488 53.3978C261.125 51.3899 255.137 51.7618 248.4 54.439C243.684 56.2982 243.684 56.2982 239.118 54.1415C230.959 50.3488 223.549 51.2412 210.899 57.5624C202.815 61.5783 195.329 67.602 188.218 75.7081C182.604 82.1781 177.589 91.9202 172.2 106.645C171.152 109.545 166.96 118.321 162.993 126.204C153.037 145.465 150.118 154.463 150.193 165.172C150.193 169.709 150.567 171.717 151.989 174.468C153.636 177.74 156.256 179.525 155.657 176.922C153.679 168.322 154.289 158.219 157.433 150.856C160.576 143.494 164.19 143.926 162.993 146.975C159.624 155.379 158.939 176.382 162.993 181.906C168.929 189.995 171.334 191.609 184.766 197.431C195.92 202.265 201.243 202.133 205.434 200.794C207.905 200.051 208.803 200.125 212.396 201.464C214.641 202.282 217.561 202.951 218.908 202.951C221.528 202.951 221.827 203.546 220.929 207.934C220.555 209.718 219.881 210.313 216.812 211.354C214.791 212.098 211.423 214.18 209.402 215.965C207.381 217.75 202.44 220.725 198.473 222.658C182.006 230.467 175.568 236.342 169.355 249.282C167.11 253.818 159.475 272.187 152.289 289.961C137.468 326.624 135.971 330.119 128.635 343.431C117.707 363.362 117.183 365.146 120.551 370.055C122.572 373.104 129.683 377.194 135.222 378.458C139.788 379.499 151.69 385.077 153.187 386.936C154.085 387.977 157.76 389.363 156.937 392.784C156.114 396.131 154.624 396.988 155.597 399.443C156.196 401.004 154.385 402.405 154.16 403C153.112 406.049 136.944 432.523 128.935 444.274C114.638 465.171 108.275 476.177 107.826 480.639C107.527 483.911 107.751 484.878 109.623 487.63Z" fill="black"/>
<path d="M27.6099 467.297C29.8555 468.041 35.5443 469.007 35.5443 469.007H134.825C144.107 459.86 149.545 444.764 153.812 432.196C159.725 414.719 159.127 394.119 152.165 377.015C150.743 373.52 146.626 365.413 142.958 359.092C131.506 339.385 128.661 331.428 128.661 319.306C128.661 309.787 127.613 305.176 122.898 293.277C118.962 283.345 117.885 271.71 122.299 266.728C124.769 263.94 128.141 260.058 128.622 252.296C128.921 247.462 126.191 243.85 124.769 240.652C123.197 237.008 124.021 238.171 124.769 231.701C126.341 218.686 126.566 214.819 126.116 210.803C124.994 201.879 122.523 202.326 111.146 213.258C102.837 221.289 102.837 221.289 96.5495 220.62C92.5823 220.099 88.0163 220.099 83.8245 220.546C77.3871 221.289 77.3871 221.289 70.1264 214.15C59.4224 203.441 55.8295 202.102 54.4072 208.201C53.6587 211.101 54.2575 222.182 55.6049 231.924C56.4283 237.948 56.3534 239.063 55.2306 242.335C52.0868 251.111 51.6377 259.44 58.8236 267.843C63.5393 276.842 63.5393 278.998 58.4493 291.492C53.2845 304.135 52.3862 308.225 51.6377 320.942C50.8143 335.369 49.6166 338.492 37.1162 360.133C25.4391 380.361 22.8193 388.839 22.8193 406.687C22.8193 416.058 23.1187 419.404 24.466 424.759C26.4871 432.939 29.8555 441.343 33.3735 447.069C34.7958 449.449 35.8437 451.605 35.5443 451.829C35.3197 452.052 31.5022 450.49 27.0859 448.333C20.1994 444.987 18.1035 443.499 12.9387 438.368C3.80658 429.295 -0.534889 419.702 -2.40622 404.605C-3.97813 391.293 -1.58282 377.982 6.27674 356.861C15.8579 331.279 18.2532 320.421 17.6544 306.663C16.9058 291.79 13.3878 283.089 4.48025 274.313C-4.42726 265.464 -13.5593 261.894 -25.2364 262.563C-36.5392 263.233 -45.821 269.628 -49.4888 279.37C-51.9589 285.84 -51.3601 293.872 -47.9917 300.268C-42.228 310.976 -29.6527 315.662 -23.8142 309.266C-19.6973 304.655 -22.1674 298.408 -28.9042 296.698C-32.7217 295.731 -34.4433 293.649 -34.9673 289.41C-35.7158 283.386 -30.4012 278.775 -22.7662 278.775C-13.709 278.775 -4.72665 285.617 -0.759441 295.657C0.737621 299.375 0.962166 301.234 0.962166 309.638C0.887314 321.388 -0.235477 326.222 -8.46931 348.681C-17.0026 371.883 -19.5476 383.039 -19.5476 397.243C-19.5476 416.653 -13.709 434.055 -2.93018 446.772C4.70483 455.77 16.7562 463.876 27.6099 467.297Z" fill="black"/>
</mask>
<g mask="url(#mask0_2049_94)">
<circle cx="190.139" cy="190" r="190" fill="black"/>
</g>
</g>
<defs>
<clipPath id="clip0_2049_94">
<rect width="390" height="380" fill="white"/>
</clipPath>
</defs>
</svg>
