<svg width="496" height="440" viewBox="0 0 496 440" fill="none" xmlns="http://www.w3.org/2000/svg">
<path d="M76.8587 438.319C79.0542 439.05 84.6163 440 84.6163 440H181.685C190.76 431.009 196.078 416.17 200.249 403.817C206.031 386.639 205.446 366.39 198.639 349.578C197.249 346.142 193.224 338.175 189.637 331.961C178.44 312.591 175.659 304.769 175.659 292.854C175.659 283.498 174.634 278.966 170.024 267.27C166.175 257.508 165.123 246.071 169.438 241.174C171.853 238.433 175.15 234.618 175.621 226.988C175.913 222.237 173.244 218.687 171.853 215.544C170.317 211.962 171.122 213.104 171.853 206.745C173.39 193.953 173.61 190.152 173.171 186.204C172.073 177.433 169.658 177.871 158.534 188.617C150.41 196.511 150.41 196.511 144.262 195.853C140.384 195.342 135.919 195.342 131.821 195.78C125.527 196.511 125.527 196.511 118.428 189.494C107.962 178.968 104.45 177.652 103.059 183.646C102.327 186.497 102.913 197.388 104.23 206.964C105.035 212.885 104.962 213.982 103.864 217.198C100.79 225.823 100.351 234.01 107.377 242.27C111.988 251.115 111.988 253.235 107.011 265.516C101.961 277.942 101.083 281.963 100.351 294.462C99.5462 308.643 98.3752 311.713 86.1532 332.985C74.7363 352.867 72.1748 361.201 72.1748 378.744C72.1748 387.954 72.4675 391.244 73.7849 396.507C75.7609 404.548 79.0542 412.808 82.4939 418.436C83.8845 420.775 84.9091 422.895 84.6163 423.114C84.3968 423.334 80.6643 421.799 76.3464 419.679C69.6133 416.389 67.5641 414.927 62.5143 409.884C53.5856 400.966 49.3409 391.536 47.5112 376.697C45.9744 363.613 48.3163 350.528 56.0008 329.768C65.3685 304.623 67.7104 293.951 67.1249 280.427C66.3931 265.808 62.9534 257.255 54.2443 248.63C45.5352 239.931 36.6066 236.423 25.1897 237.08C14.1387 237.738 5.06366 244.025 1.47757 253.601C-0.937547 259.96 -0.352064 267.855 2.94128 274.141C8.57657 284.667 20.8717 289.272 26.5802 282.986C30.6054 278.454 28.1903 272.314 21.6036 270.632C17.8711 269.682 16.1879 267.635 15.6756 263.469C14.9437 257.548 20.1399 253.016 27.6048 253.016C36.4602 253.016 45.2425 259.741 49.1213 269.609C50.585 273.264 50.8046 275.091 50.8046 283.351C50.7314 294.901 49.6336 299.652 41.5832 321.728C33.2401 344.534 30.7518 355.499 30.7518 369.461C30.7518 388.539 36.4602 405.644 46.999 418.144C54.4639 426.989 66.2468 434.956 76.8587 438.319Z" fill="black"/>
<path d="M222.044 428.304C224.386 431.667 227.899 437.807 232.73 440H481.121H486.464C492.538 437.588 497.442 429.255 495.612 422.31C493.27 413.319 485.439 394.314 481.121 387.15C477.535 381.302 473.949 377.063 461.215 363.686C448.773 350.601 447.456 348.701 445.041 340.148C443.577 334.812 443.577 334.812 449.359 333.058C453.677 331.742 461.141 327.21 462.605 325.017C463.191 324.14 463.776 322.093 463.922 320.558C464.142 317.78 464.288 317.707 469.192 315.661C478.633 311.933 486.464 304.111 486.464 298.483C486.464 295.339 483.39 290.149 474.169 278.088C460.995 260.691 452.14 244.975 439.259 215.736C424.549 182.403 419.499 176.044 400.983 166.98C395.201 164.202 389.712 160.913 387.59 159.012C384.736 156.527 383.272 155.723 380.345 155.357C376.685 154.845 376.685 154.845 376.685 151.702C376.685 148.851 376.905 148.486 378.369 148.486C379.247 148.413 381.662 147.828 383.784 147.097C386.931 146.074 387.81 146.001 389.346 146.732C392.054 148.194 400.471 146.001 414.156 140.372C432.599 132.697 435.892 127.872 435.014 109.525C434.795 104.846 434.795 100.972 434.941 100.972C435.966 100.972 440.592 108.235 440.592 114.448C440.519 121.831 438.234 125.752 440.064 123.267C441.967 120.636 442.772 114.203 441.967 107.843C440.796 99.1449 438.234 92.2737 430.184 76.4845C424.768 65.9585 422.134 59.672 419.206 50.5348C413.351 32.5527 410.278 27.0704 400.471 17.2022C391.615 8.28426 385.541 4.26388 376.393 1.48617C370.172 -0.487474 364.317 -0.121984 357.73 2.50954C353.12 4.33698 353.12 4.33698 348.655 2.21714C340.678 -1.51084 333.433 -0.633671 321.064 5.57964C313.16 9.52693 305.842 15.4478 298.889 23.4155C293.4 29.775 288.497 39.3508 283.228 53.8242C282.203 56.675 278.105 65.3006 274.226 73.0489C264.492 91.9813 261.638 100.826 261.711 111.352C261.711 115.811 262.077 117.785 263.467 120.489C265.078 123.706 267.639 125.46 267.054 122.902C265.119 114.448 265.716 104.517 268.789 97.2808C271.863 90.0441 275.397 90.4688 274.226 93.4658C270.932 101.726 270.262 122.371 274.226 127.8C280.03 135.751 282.381 137.338 295.514 143.06C306.419 147.811 311.624 147.682 315.722 146.366C318.137 145.635 319.015 145.708 322.528 147.024C324.724 147.828 327.578 148.486 328.895 148.486C331.457 148.486 331.75 149.071 330.871 153.383C330.505 155.138 329.847 155.723 326.846 156.746C324.87 157.477 321.577 159.524 319.601 161.278C317.625 163.032 312.795 165.956 308.916 167.857C292.815 175.532 286.521 181.307 280.447 194.026C278.251 198.485 270.786 216.54 263.76 234.01C249.269 270.048 247.806 273.483 240.634 286.568C229.948 306.158 229.436 307.912 232.73 312.737C234.706 315.734 241.658 319.754 247.074 320.997C251.538 322.02 263.175 327.502 264.638 329.33C265.517 330.353 269.11 331.716 268.305 335.078C267.5 338.368 266.043 339.211 266.995 341.623C267.58 343.158 265.809 344.534 265.59 345.119C264.565 348.116 248.757 374.139 240.926 385.688C226.948 406.229 220.727 417.047 220.288 421.433C219.995 424.65 220.215 425.6 222.044 428.304Z" fill="black"/>
</svg>
