<svg width="882" height="1016" viewBox="0 0 882 1016" fill="none" xmlns="http://www.w3.org/2000/svg">
<mask id="mask0_2042_12" style="mask-type:alpha" maskUnits="userSpaceOnUse" x="0" y="139" width="882" height="877">
<path d="M0 975V934H95.7H191.5L186.5 931.4C163.6 919.2 142.4 898.2 132.6 877.8C126.7 865.4 125 856.2 125 836C125.1 810.1 128.9 798.4 147 769.5C165.2 740.4 168.8 725.8 161.7 710C158.5 702.9 149.1 695 143.9 695C141.5 695 135 701.5 135 704.1C135 705.1 136.8 708 139 710.4C142.9 714.6 143 715 143 721.6C142.9 731.6 139.7 735 130.2 735C123.8 735 119.1 733 115.1 728.5C109.4 722 108.6 718.9 108.5 704C108.5 691.2 108.6 690.2 111.2 685.4C114.8 678.6 122.7 671.6 129.8 669C134.7 667.1 137.2 666.9 147.5 667.2C158.2 667.5 160.1 667.8 165.2 670.3C195 684.9 203.6 725.2 185.5 764.6C182.3 771.7 175.3 783.6 169.8 791.8C165.7 797.8 158.1 813.1 156.5 818.7C153.5 829.7 152.7 836.8 154 843.3C157.9 863.2 169.2 878.5 188.3 889.4L193 892.1V879.7C193 838.6 205 807.6 231.4 780.2C243 768.2 251.6 762.4 270.3 754C274 752.4 277.3 751 277.6 751C279.7 751 297.5 741.4 301.8 738C310 731.4 320.9 714.1 324 702.7C325 699.1 325.1 693.5 324.6 680.7C323.9 661.2 324.8 653.3 328.4 645.8C329.7 642.9 331.4 638.5 332 636C332.6 633.5 333.6 629.7 334.2 627.5C335.7 621.7 339.6 612.3 343 606.3C345.9 601.2 346.2 601 350.5 601C354.1 601 355.2 601.5 356.8 603.8C357.8 605.3 359 607.3 359.3 608.3C359.9 609.9 360.6 609.4 364 605.1C367.8 600.3 368.3 600 372.5 600C375 600 377 600.1 377.1 600.3C377.1 600.4 377.5 605.6 377.9 611.9C378.7 624.8 379.1 625.4 387 626.5C399.6 628.2 406.6 632.9 413.3 644C415.7 648.1 417.7 650.1 421.5 652L426.5 654.6L426.8 665.8C427.1 676.6 426.9 677.3 423.9 683.6C421.4 688.9 419.9 690.7 416.3 692.8C407.7 697.9 405.5 699.6 403.2 703C401.1 706.1 400.9 707.3 401.3 714C401.6 718.1 402.8 724.9 404 729C409.2 746.6 411 756.9 411 768.5C411 784.6 405.9 799 393 819.5C384.9 832.3 383.8 834.4 381.2 841C375.8 854.7 373.1 871.7 373.1 891.5C373 907.7 375 924.9 377.3 928.4C378.2 929.7 380.8 931.5 383.2 932.4C387.1 933.9 396.3 934 474 933.8L560.5 933.5L561.1 921C561.5 914.1 562.5 905.9 563.4 902.6C565.3 895.7 565.8 869.4 564.2 859C563.6 855.4 562.6 847.8 562 842C561.4 836.2 560.4 827.9 559.9 823.6C559.4 819.2 559 811.8 558.9 807.1C558.8 795.4 557.9 789.6 556 789.3C555.2 789.2 549.1 788.7 542.5 788C518.9 785.8 495 782.5 483.5 780C458.4 774.4 451.5 771.6 448.6 765.6C446.8 762 446.8 761 447.9 753.6C448.6 749.1 449.6 743.9 450 742C450.5 740.1 451.3 736.5 451.9 734C452.5 731.5 453.8 725.7 454.9 721C456 716.3 457.6 708.9 458.6 704.5C459.5 700.1 460.6 694.9 461 693C461.4 691.1 462.8 684.8 464 679C465.2 673.2 466.6 666.7 467.1 664.5C467.6 662.3 468.5 658.3 469 655.5C469.5 652.8 470.4 648.5 471 646C471.6 643.5 472.5 639 473.1 636C473.7 633 474.6 628.7 475 626.5C475.4 624.3 476.3 620 476.9 617C477.5 614 478.8 607.5 479.9 602.5C480.9 597.6 482.5 589.9 483.4 585.5C484.3 581.1 485.5 575.5 486.1 573C487.3 568 488.7 561.5 490 555.5C493.6 539 504.1 495.6 510.1 473.2C514.3 457.5 516.2 450.4 517.1 447.3C517.6 445.5 518.5 442.4 519 440.5C519.6 438.6 520.5 435.4 521 433.5C521.6 431.6 522.4 428.5 522.9 426.8C523.4 425 524.5 421.3 525.4 418.5C526.3 415.8 527.5 411.9 528.1 410C529 406.9 531.7 399.4 534 393.5C535.1 390.6 536.4 387.6 541 377.7C543.2 372.8 545 368.6 545 368.4C545 368.2 543.5 368 541.8 368C535.1 368 515.8 362.3 507 357.8C503.1 355.8 500.1 355 496.4 355C488 355 481.5 349.6 476.4 338.6C472.2 329.4 471 322.8 471 309.2C471 297.5 471.9 290.5 474.9 280C479 265.2 480.9 257.3 481.9 250C485.5 223.5 487.1 216.4 492.2 203.5C498.1 188.6 505.2 177.7 516.5 166.5C535.1 147.8 557.7 139.1 587.6 139C603.3 139 617.9 141.2 633 145.8C636.6 146.9 643.4 149 648.2 150.4C664.5 155.3 673.1 160.3 683.1 170.7C696.7 184.8 703 199.2 703 216.5C703 224.6 702.7 226.1 699.7 232C696.5 238.5 696.5 238.5 691.9 238.8L687.3 239.1L686.2 244.1C683.3 256.5 685.7 263.7 694.4 268.7L699.5 271.6L699.3 279C699.3 283.1 699.2 290.4 699.1 295.2C699.1 300 698.6 304.1 698 304.5C697.5 304.8 697 306.2 697 307.6C697 310.4 695.4 314 693.4 315.5C692.7 316.1 690.5 319.8 688.5 323.7C682.7 335.3 677.1 338.7 661.7 339.8C657.4 340 653.7 340.6 653.5 341.1C652.9 342 663.2 351 664.8 351C667.8 351 669.1 359.8 666.5 362C665.6 362.8 661.9 363.3 657.7 363.4C652.4 363.5 650.2 363.9 649.3 365.1C648.1 366.6 636.7 368.8 627 369.3L622.5 369.5L628 372.6C635.6 377 638.6 380.5 640.4 387.2C641.2 390.3 644.3 397 647.2 402.2C657.8 420.5 665.4 439.2 678.4 478.5C689.4 511.8 695.4 531.9 704.6 566.8C705.9 571.8 708.2 580.4 709.6 585.8C711 591.1 717.3 616.2 723.6 641.5C729.9 666.8 735.5 689.1 736 691C736.5 692.9 737.8 698.4 739 703.3C740.1 708.1 741.9 715.7 743 720.3C748.6 744 750.9 758.6 749.4 762.7C748.9 764.2 747 766.4 745.2 767.6C741 770.5 723.2 776 708.5 779.1C705.8 779.7 701.5 780.6 699 781.2C684.3 784.3 661.3 787.2 637.3 789C630.1 789.5 623.5 790.2 622.7 790.6C621.9 790.9 621 793.1 620.6 795.8C620.2 798.4 619.5 803.7 619 807.5C614.5 839.4 611.7 873 613 878.2C614.9 885.6 615.2 886.6 616.3 888.9C617 890.2 620.1 893 623.2 895.2C628.7 898.8 629 899.3 629 903.1C629 905.3 628.5 908 627.9 909.2C626.5 911.7 627.1 912.3 630.3 911.5C632.3 911 633 910.1 633.2 907.7C633.5 904.5 633.5 904.5 639.2 904.6C644.6 904.7 650 906.4 661 911.2C670.8 915.5 675 920.8 675 928.5C675 931.5 675.5 933 676.6 933.4C677.5 933.7 724 934 780.1 934H882V975V1016H441H0L0 975ZM344.6 932.4C344.2 930.9 343.7 928.4 343.4 926.6C342.8 923.1 341.3 916.3 340 911C339.5 909.1 338.8 906.2 338.5 904.6L337.9 901.6L335 906.6C333.5 909.3 330.5 913.2 328.5 915.3C324.9 918.9 324.8 919 327.2 919C332.9 919 339 924.3 342 931.8C343.5 935.6 345.5 936.1 344.6 932.4ZM602.9 903.1C605.3 899.7 605.4 898.7 603.7 894C601.6 888 601.4 887.9 595.2 888.5C592 888.9 586.7 888.7 583.4 888.2L577.2 887.4L576.6 893.4C575.8 900.8 576.2 901.2 586.3 903.4C600.8 906.6 600.4 906.6 602.9 903.1Z" fill="black"/>
</mask>
<g mask="url(#mask0_2042_12)">
<rect y="132" width="882" height="805" fill="black"/>
</g>
</svg>
