<svg width="144" height="116" viewBox="0 0 144 116" fill="none" xmlns="http://www.w3.org/2000/svg">
<path d="M20.1315 114.896C20.7065 115.087 22.1634 115.336 22.1634 115.336H47.5885C49.9655 112.979 51.3584 109.09 52.451 105.852C53.9654 101.349 53.812 96.0412 52.0293 91.6341C51.6651 90.7336 50.6107 88.645 49.6714 87.0163C46.7385 81.9387 46.0101 79.8885 46.0101 76.7652C46.0101 74.3126 45.7417 73.1246 44.5341 70.0589C43.5261 67.5 43.2504 64.5021 44.3807 63.2184C45.0133 62.5 45.8769 61.5 46 59.5C46.0767 58.2545 45.3775 57.3239 45.0133 56.5C44.6107 55.5611 44.8216 55.8606 45.0133 54.1936C45.4158 50.8404 45.4734 49.8441 45.3583 48.8094C45.0708 46.51 44.4382 46.625 41.5245 49.4417C39.3967 51.5111 39.3967 51.5111 37.7864 51.3386C36.7705 51.2045 35.6011 51.2045 34.5277 51.3195C32.8791 51.5111 32.8791 51.5111 31.0197 49.6716C28.2784 46.9124 27.3583 46.5675 26.9941 48.1387C26.8024 48.886 26.9558 51.741 27.3008 54.2511C27.5117 55.8031 27.4925 56.0905 27.205 56.9336C26.3998 59.1946 26.2848 61.3406 28.1251 63.5058C29.3328 65.8243 29.3328 66.38 28.0292 69.599C26.7066 72.8564 26.4765 73.9102 26.2848 77.1868C26.074 80.904 25.7673 81.7088 22.566 87.2846C19.5756 92.4964 18.9046 94.6807 18.9046 99.2794C18.9046 101.694 18.9813 102.556 19.3264 103.935C19.8439 106.043 20.7065 108.208 21.6075 109.684C21.9717 110.297 22.2401 110.853 22.1634 110.91C22.1059 110.968 21.1283 110.565 19.9973 110.01C18.2337 109.147 17.6969 108.764 16.3743 107.442C14.0356 105.104 12.9238 102.633 12.4445 98.7429C12.042 95.3131 12.6554 91.8832 14.6682 86.4415C17.1219 79.8501 17.7353 77.0526 17.5819 73.5079C17.3902 69.6757 16.4893 67.4338 14.2081 65.1728C11.927 62.8927 9.58831 61.973 6.59789 62.1454C3.70332 62.3178 1.32632 63.9657 0.387019 66.4758C-0.24557 68.1428 -0.0922155 70.2122 0.770406 71.86C2.24645 74.6192 5.4669 75.8263 6.96211 74.1785C8.01642 72.9905 7.38383 71.381 5.65859 70.9403C4.68095 70.6912 4.24006 70.1547 4.10587 69.0625C3.91418 67.5105 5.27521 66.3225 7.23048 66.3225C9.54997 66.3225 11.8503 68.0853 12.8663 70.672C13.2497 71.6301 13.3072 72.1091 13.3072 74.2743C13.288 77.3017 13.0005 78.5472 10.8918 84.3338C8.70652 90.312 8.05476 93.1862 8.05476 96.8459C8.05476 101.847 9.54997 106.331 12.3104 109.607C14.2656 111.926 17.3519 114.014 20.1315 114.896Z" fill="black"/>
<path d="M71.2562 112.271C71.8696 113.152 72.7897 114.761 74.0549 115.336H139.116H140.515C142.106 114.704 143.39 112.52 142.911 110.699C142.298 108.343 140.247 103.361 139.116 101.483C138.176 99.95 137.237 98.8387 133.902 95.3322C130.643 91.9024 130.298 91.4042 129.665 89.1624C129.282 87.7636 129.282 87.7636 130.796 87.3038C131.927 86.9589 133.882 85.7709 134.266 85.1961C134.419 84.9661 134.573 84.4296 134.611 84.0272C134.668 83.2991 134.707 83.28 135.991 82.7434C138.464 81.7662 140.515 79.716 140.515 78.2406C140.515 77.4167 139.71 76.0563 137.295 72.8947C133.844 68.3344 131.525 64.2148 128.151 56.5504C124.298 47.813 122.975 46.146 118.125 43.77C116.611 43.0419 115.173 42.1797 114.617 41.6815C113.87 41.03 113.486 40.8192 112.719 40.7234C111.761 40.5893 111.761 40.5893 111.761 39.7654C111.761 39.0181 111.819 38.9223 112.202 38.9223C112.432 38.9031 113.065 38.7498 113.62 38.5582C114.445 38.29 114.675 38.2708 115.077 38.4624C115.787 38.8456 117.991 38.2708 121.576 36.7954C126.406 34.7835 127.269 33.5189 127.039 28.7095C126.981 27.4832 126.982 26.4677 127.02 26.4677C127.288 26.4677 128.5 28.3713 128.5 30C128.481 31.9353 127.882 32.9632 128.362 32.3118C128.86 31.622 129.071 29.9358 128.86 28.2688C128.553 25.9886 127.882 24.1875 125.774 20.0487C124.355 17.2895 123.665 15.6417 122.898 13.2466C121.365 8.53298 120.56 7.09591 117.991 4.50918C115.672 2.17154 114.081 1.11768 111.684 0.389566C110.055 -0.127781 108.521 -0.0319755 106.796 0.65782C105.588 1.13684 105.589 1.13684 104.419 0.581176C102.33 -0.396034 100.432 -0.166103 97.1923 1.46258C95.122 2.49727 93.2051 4.04931 91.384 6.13786C89.9463 7.80486 88.6619 10.315 87.2818 14.1088C87.0134 14.8561 85.9399 17.1171 84.9239 19.1482C82.3744 24.1109 81.6268 26.4293 81.646 29.1885C81.646 30.3573 81.7418 30.8747 82.106 31.5836C82.5277 32.4267 83.1987 32.8866 83.0453 32.216C82.5386 30 82.6949 27.3969 83.5 25.5C84.3051 23.6031 85.2306 23.7144 84.9239 24.5C84.0613 26.6652 83.8857 32.0767 84.9239 33.5C86.4443 35.5841 87.06 36 90.5 37.5C93.3562 38.7455 94.7195 38.7115 95.793 38.3666C96.4256 38.175 96.6556 38.1942 97.5757 38.5391C98.1508 38.7498 98.8984 38.9223 99.2434 38.9223C99.9144 38.9223 99.9911 39.0756 99.761 40.2061C99.6652 40.6659 99.4926 40.8192 98.7067 41.0875C98.1891 41.2791 97.3265 41.8156 96.8089 42.2755C96.2914 42.7353 95.0262 43.5018 94.0102 44C89.7929 46.0119 88.1444 47.5256 86.5533 50.8596C85.9782 52.0284 84.023 56.7612 82.1827 61.3406C78.3872 70.787 78.0038 71.6876 76.1252 75.1174C73.3265 80.2525 73.1923 80.7124 74.0549 81.977C74.5725 82.7626 76.3936 83.8165 77.8121 84.1422C78.9814 84.4105 82.0294 85.8475 82.4127 86.3266C82.6428 86.5948 83.5839 86.952 83.3731 87.8334C83.1622 88.6956 82.7808 88.9165 83.03 89.5489C83.1833 89.9512 82.7194 90.312 82.6619 90.4653C82.3936 91.2509 78.253 98.0722 76.2019 101.1C72.5405 106.484 70.9111 109.32 70.7961 110.469C70.7194 111.312 70.7769 111.562 71.2562 112.271Z" fill="black"/>
<path d="M55.5 56.75C55.6381 56.75 55.75 56.6381 55.75 56.5C55.75 56.3619 55.6381 56.25 55.5 56.25V56.5V56.75ZM44 60C44.1057 60.2265 44.1057 60.2265 44.1058 60.2265C44.1058 60.2265 44.1059 60.2265 44.106 60.2264C44.1062 60.2263 44.1065 60.2262 44.1069 60.226C44.1078 60.2256 44.1091 60.225 44.1108 60.2242C44.1143 60.2225 44.1196 60.2201 44.1266 60.2168C44.1407 60.2103 44.1617 60.2006 44.1894 60.1879C44.2448 60.1625 44.3267 60.1252 44.4326 60.0776C44.6443 59.9824 44.9515 59.8463 45.3329 59.6829C46.0957 59.356 47.154 58.9202 48.3364 58.4846C50.7136 57.6088 53.5499 56.75 55.5 56.75V56.5V56.25C53.4501 56.25 50.5364 57.1412 48.1636 58.0154C46.971 58.4548 45.9043 58.894 45.1359 59.2233C44.7516 59.388 44.4416 59.5253 44.2276 59.6216C44.1205 59.6697 44.0374 59.7075 43.981 59.7334C43.9528 59.7464 43.9312 59.7563 43.9167 59.763C43.9094 59.7664 43.9038 59.769 43.9001 59.7707C43.8982 59.7716 43.8968 59.7723 43.8958 59.7727C43.8953 59.7729 43.895 59.7731 43.8947 59.7732C43.8946 59.7733 43.8945 59.7733 43.8944 59.7734C43.8943 59.7734 43.8943 59.7734 44 60Z" fill="black"/>
<path d="M54.4209 60.2371C54.5519 60.2808 54.6935 60.21 54.7372 60.079C54.7808 59.948 54.71 59.8064 54.5791 59.7628L54.5 60L54.4209 60.2371ZM44 60C44.033 60.2478 44.033 60.2478 44.0331 60.2478C44.0331 60.2478 44.0332 60.2478 44.0333 60.2478C44.0335 60.2478 44.0338 60.2477 44.0342 60.2477C44.0351 60.2476 44.0364 60.2474 44.0381 60.2472C44.0416 60.2467 44.0469 60.246 44.0539 60.2451C44.068 60.2433 44.0889 60.2405 44.1165 60.237C44.1716 60.23 44.2531 60.2198 44.358 60.2072C44.5678 60.182 44.8711 60.147 45.2447 60.1081C45.9919 60.0302 47.019 59.9368 48.1389 59.8746C49.2594 59.8124 50.4694 59.7815 51.5833 59.8279C52.702 59.8745 53.7049 59.9985 54.4209 60.2371L54.5 60L54.5791 59.7628C53.7951 59.5015 52.7355 59.3755 51.6042 59.3283C50.4681 59.281 49.2406 59.3126 48.1111 59.3754C46.981 59.4382 45.9456 59.5323 45.1928 59.6107C44.8164 59.65 44.5103 59.6853 44.2982 59.7108C44.1922 59.7236 44.1096 59.7339 44.0534 59.741C44.0253 59.7446 44.0038 59.7474 43.9893 59.7493C43.982 59.7502 43.9765 59.751 43.9728 59.7515C43.9709 59.7517 43.9695 59.7519 43.9685 59.752C43.968 59.7521 43.9676 59.7521 43.9674 59.7522C43.9673 59.7522 43.9672 59.7522 43.9671 59.7522C43.967 59.7522 43.967 59.7522 44 60Z" fill="black"/>
<path d="M18 56.75C17.8619 56.75 17.75 56.6381 17.75 56.5C17.75 56.3619 17.8619 56.25 18 56.25V56.5V56.75ZM29.5 60C29.3943 60.2265 29.3943 60.2265 29.3942 60.2265C29.3942 60.2265 29.3941 60.2265 29.394 60.2264C29.3938 60.2263 29.3935 60.2262 29.3931 60.226C29.3922 60.2256 29.3909 60.225 29.3892 60.2242C29.3857 60.2225 29.3804 60.2201 29.3734 60.2168C29.3593 60.2103 29.3383 60.2006 29.3106 60.1879C29.2552 60.1625 29.1733 60.1252 29.0674 60.0776C28.8557 59.9824 28.5485 59.8463 28.1671 59.6829C27.4043 59.356 26.346 58.9202 25.1636 58.4846C22.7864 57.6088 19.9501 56.75 18 56.75V56.5V56.25C20.0499 56.25 22.9636 57.1412 25.3364 58.0154C26.529 58.4548 27.5957 58.894 28.3641 59.2233C28.7484 59.388 29.0584 59.5253 29.2724 59.6216C29.3795 59.6697 29.4626 59.7075 29.519 59.7334C29.5472 59.7464 29.5688 59.7563 29.5833 59.763C29.5906 59.7664 29.5962 59.769 29.5999 59.7707C29.6018 59.7716 29.6032 59.7723 29.6042 59.7727C29.6047 59.7729 29.605 59.7731 29.6053 59.7732C29.6054 59.7733 29.6055 59.7733 29.6056 59.7734C29.6057 59.7734 29.6057 59.7734 29.5 60Z" fill="black"/>
<path d="M19.0791 60.2371C18.9481 60.2808 18.8065 60.21 18.7628 60.079C18.7192 59.948 18.79 59.8064 18.9209 59.7628L19 60L19.0791 60.2371ZM29.5 60C29.467 60.2478 29.467 60.2478 29.4669 60.2478C29.4669 60.2478 29.4668 60.2478 29.4667 60.2478C29.4665 60.2478 29.4662 60.2477 29.4658 60.2477C29.4649 60.2476 29.4636 60.2474 29.4619 60.2472C29.4584 60.2467 29.4531 60.246 29.4461 60.2451C29.432 60.2433 29.4111 60.2405 29.3835 60.237C29.3284 60.23 29.2469 60.2198 29.142 60.2072C28.9322 60.182 28.6289 60.147 28.2553 60.1081C27.5081 60.0302 26.481 59.9368 25.3611 59.8746C24.2406 59.8124 23.0306 59.7815 21.9167 59.8279C20.798 59.8745 19.7951 59.9985 19.0791 60.2371L19 60L18.9209 59.7628C19.7049 59.5015 20.7645 59.3755 21.8958 59.3283C23.0319 59.281 24.2594 59.3126 25.3889 59.3754C26.519 59.4382 27.5544 59.5323 28.3072 59.6107C28.6836 59.65 28.9897 59.6853 29.2018 59.7108C29.3078 59.7236 29.3904 59.7339 29.4466 59.741C29.4747 59.7446 29.4962 59.7474 29.5107 59.7493C29.518 59.7502 29.5235 59.751 29.5272 59.7515C29.5291 59.7517 29.5305 59.7519 29.5315 59.752C29.532 59.7521 29.5324 59.7521 29.5326 59.7522C29.5327 59.7522 29.5328 59.7522 29.5329 59.7522C29.533 59.7522 29.533 59.7522 29.5 60Z" fill="black"/>
</svg>
