<svg width="744" height="620" viewBox="0 0 744 620" fill="none" xmlns="http://www.w3.org/2000/svg">
<rect x="497" y="495" width="124" height="124" fill="white" fill-opacity="0.8"/>
<rect x="498" y="496" width="122" height="122" stroke="black" stroke-opacity="0.1" stroke-width="2"/>
<rect x="497" y="372" width="124" height="124" fill="white" fill-opacity="0.8"/>
<rect x="498" y="373" width="122" height="122" stroke="black" stroke-opacity="0.1" stroke-width="2"/>
<rect x="372" y="372" width="124" height="124" fill="white" fill-opacity="0.8"/>
<rect x="373" y="373" width="122" height="122" stroke="black" stroke-opacity="0.1" stroke-width="2"/>
<rect x="620" y="372" width="124" height="124" fill="white" fill-opacity="0.8"/>
<rect x="621" y="373" width="122" height="122" stroke="black" stroke-opacity="0.1" stroke-width="2"/>
<g opacity="0.8">
<rect x="124" y="372" width="124" height="124" fill="white" fill-opacity="0.8"/>
<rect x="125" y="373" width="122" height="122" stroke="black" stroke-opacity="0.1" stroke-width="2"/>
</g>
<rect x="248" y="372" width="124" height="124" fill="white" fill-opacity="0.8"/>
<rect x="249" y="373" width="122" height="122" stroke="black" stroke-opacity="0.1" stroke-width="2"/>
<rect x="496" y="248" width="124" height="124" fill="white" fill-opacity="0.8"/>
<rect x="497" y="249" width="122" height="122" stroke="black" stroke-opacity="0.1" stroke-width="2"/>
<g opacity="0.8">
<rect x="248" y="248" width="124" height="124" fill="white" fill-opacity="0.8"/>
<rect x="249" y="249" width="122" height="122" stroke="black" stroke-opacity="0.1" stroke-width="2"/>
</g>
<g opacity="0.8">
<rect x="496" y="124" width="124" height="124" fill="white" fill-opacity="0.8"/>
<rect x="497" y="125" width="122" height="122" stroke="black" stroke-opacity="0.1" stroke-width="2"/>
</g>
<rect x="620" y="124" width="124" height="124" fill="white" fill-opacity="0.8"/>
<rect x="621" y="125" width="122" height="122" stroke="black" stroke-opacity="0.1" stroke-width="2"/>
<g opacity="0.6">
<rect x="372" width="124" height="124" fill="white" fill-opacity="0.8"/>
<rect x="373" y="1" width="122" height="122" stroke="black" stroke-opacity="0.1" stroke-width="2"/>
</g>
<g opacity="0.6">
<rect x="620" width="124" height="124" fill="white" fill-opacity="0.8"/>
<rect x="621" y="1" width="122" height="122" stroke="black" stroke-opacity="0.1" stroke-width="2"/>
</g>
<rect x="372" y="248" width="124" height="124" fill="white" fill-opacity="0.8"/>
<rect x="373" y="249" width="122" height="122" stroke="black" stroke-opacity="0.1" stroke-width="2"/>
<rect x="620" y="248" width="124" height="124" fill="white" fill-opacity="0.8"/>
<rect x="621" y="249" width="122" height="122" stroke="black" stroke-opacity="0.1" stroke-width="2"/>
<g opacity="0.6">
<rect x="124" y="496" width="124" height="124" fill="white" fill-opacity="0.8"/>
<rect x="125" y="497" width="122" height="122" stroke="black" stroke-opacity="0.1" stroke-width="2"/>
</g>
<rect x="248" y="496" width="124" height="124" fill="white" fill-opacity="0.8"/>
<rect x="249" y="497" width="122" height="122" stroke="black" stroke-opacity="0.1" stroke-width="2"/>
<rect x="620" y="496" width="124" height="124" fill="white" fill-opacity="0.8"/>
<rect x="621" y="497" width="122" height="122" stroke="black" stroke-opacity="0.1" stroke-width="2"/>
<rect x="372" y="496" width="124" height="124" fill="white" fill-opacity="0.8"/>
<rect x="373" y="497" width="122" height="122" stroke="black" stroke-opacity="0.1" stroke-width="2"/>
<g opacity="0.4">
<rect y="496" width="124" height="124" fill="white" fill-opacity="0.8"/>
<rect x="1" y="497" width="122" height="122" stroke="black" stroke-opacity="0.1" stroke-width="2"/>
</g>
<g opacity="0.4">
<rect y="246" width="124" height="124" fill="white" fill-opacity="0.8"/>
<rect x="1" y="247" width="122" height="122" stroke="black" stroke-opacity="0.1" stroke-width="2"/>
</g>
<path d="M282.859 618.319C285.054 619.05 290.616 620 290.616 620H339.151H387.685C396.76 611.009 402.078 596.17 406.249 583.817C412.031 566.639 411.446 546.39 404.639 529.578C403.249 526.142 399.224 518.175 395.637 511.961C384.44 492.591 381.659 484.769 381.659 472.854C381.659 463.498 380.634 458.966 376.024 447.27C372.175 437.508 371.123 426.071 375.438 421.174C377.853 418.433 381.15 414.618 381.621 406.988C381.913 402.237 379.244 398.687 377.853 395.544C376.317 391.962 377.122 393.104 377.853 386.745C379.39 373.953 379.61 370.152 379.171 366.204C378.073 357.433 375.658 357.871 364.534 368.617C356.41 376.511 356.41 376.511 350.262 375.853C346.384 375.342 341.919 375.342 337.821 375.78C331.527 376.511 331.527 376.511 324.428 369.494C313.962 358.968 310.45 357.652 309.059 363.646C308.327 366.497 308.913 377.388 310.23 386.964C311.035 392.885 310.962 393.982 309.864 397.198C306.79 405.823 306.351 414.01 313.377 422.27C317.988 431.115 317.988 433.235 313.011 445.516C307.961 457.942 307.083 461.963 306.351 474.462C305.546 488.643 304.375 491.713 292.153 512.985C280.736 532.867 278.175 541.201 278.175 558.744C278.175 567.954 278.468 571.244 279.785 576.507C281.761 584.548 285.054 592.808 288.494 598.436C289.884 600.775 290.909 602.895 290.616 603.114C290.397 603.334 286.664 601.799 282.346 599.679C275.613 596.389 273.564 594.927 268.514 589.884C259.586 580.966 255.341 571.536 253.511 556.697C251.974 543.613 254.316 530.528 262.001 509.768C271.369 484.623 273.71 473.951 273.125 460.427C272.393 445.808 268.953 437.255 260.244 428.63C251.535 419.931 242.607 416.423 231.19 417.08C220.139 417.738 211.064 424.025 207.478 433.601C205.062 439.96 205.648 447.855 208.941 454.141C214.577 464.667 226.872 469.272 232.58 462.986C236.605 458.454 234.19 452.314 227.604 450.632C223.871 449.682 222.188 447.635 221.676 443.469C220.944 437.548 226.14 433.016 233.605 433.016C242.46 433.016 251.243 439.741 255.121 449.609C256.585 453.264 256.805 455.091 256.805 463.351C256.731 474.901 255.634 479.652 247.583 501.728C239.24 524.534 236.752 535.499 236.752 549.461C236.752 568.539 242.46 585.644 252.999 598.144C260.464 606.989 272.247 614.956 282.859 618.319Z" fill="black"/>
<path d="M428.5 611C430.842 614.362 434.17 617.807 439 620H469H486H500H530H562H620H687H692.464C698.538 617.588 703.442 609.255 701.612 602.31C699.27 593.319 691.439 574.314 687.121 567.15C683.535 561.302 679.949 557.063 667.215 543.686C654.773 530.601 653.456 528.701 651.041 520.148C649.577 514.812 649.577 514.812 655.359 513.058C659.677 511.742 667.141 507.21 668.605 505.017C669.191 504.14 669.776 502.093 669.922 500.558C670.142 497.78 670.288 497.707 675.192 495.661C684.633 491.933 692.464 484.111 692.464 478.483C692.464 475.339 689.39 470.149 680.169 458.088C666.995 440.691 658.14 424.975 645.259 395.736C630.549 362.403 625.499 356.044 606.983 346.98C601.201 344.202 595.712 340.913 593.59 339.012C590.736 336.527 589.272 335.723 586.345 335.357C582.685 334.845 582.685 334.845 582.685 331.702C582.685 328.851 582.905 328.486 584.369 328.486C585.247 328.413 587.662 327.828 589.784 327.097C592.931 326.074 593.81 326.001 595.346 326.732C598.054 328.194 606.471 326.001 620.156 320.372C638.599 312.697 641.892 307.872 641.014 289.525C640.795 284.846 640.795 280.972 640.941 280.972C641.966 280.972 646.592 288.235 646.592 294.448C646.519 301.831 644.234 305.752 646.064 303.267C647.967 300.636 648.772 294.203 647.967 287.843C646.796 279.145 644.234 272.274 636.184 256.485C630.768 245.958 628.134 239.672 625.206 230.535C619.351 212.553 616.278 207.07 606.471 197.202C597.615 188.284 591.541 184.264 582.393 181.486C576.172 179.513 570.317 179.878 563.73 182.51C559.12 184.337 559.12 184.337 554.655 182.217C546.678 178.489 539.433 179.366 527.064 185.58C519.16 189.527 511.842 195.448 504.889 203.416C499.4 209.775 494.497 219.351 489.228 233.824C488.203 236.675 484.105 245.301 480.226 253.049C470.492 271.981 467.638 280.826 467.711 291.352C467.711 295.811 468.077 297.785 469.467 300.489C471.078 303.706 473.639 305.46 473.054 302.902C471.119 294.448 471.716 284.517 474.789 277.281C477.863 270.044 481.397 270.469 480.226 273.466C476.932 281.726 476.262 302.371 480.226 307.8C486.03 315.751 488.381 317.338 501.514 323.06C512.419 327.811 517.624 327.682 521.722 326.366C524.137 325.635 525.015 325.708 528.528 327.024C530.724 327.828 533.578 328.486 534.895 328.486C537.457 328.486 537.75 329.071 536.871 333.383C536.505 335.138 535.847 335.723 532.846 336.746C530.87 337.477 527.577 339.524 525.601 341.278C523.625 343.032 518.795 345.956 514.916 347.857C498.815 355.532 492.521 361.307 486.447 374.026C484.251 378.485 476.786 396.54 469.76 414.01C455.269 450.048 453.806 453.483 446.634 466.568C435.948 486.158 435.436 487.912 438.73 492.737C440.706 495.734 447.658 499.754 453.074 500.997C457.538 502.02 469.175 507.502 470.638 509.33C471.517 510.353 475.11 511.716 474.305 515.078C473.5 518.368 472.043 519.211 472.995 521.623C473.58 523.158 471.809 524.534 471.59 525.119C470.565 528.116 454.757 554.139 446.926 565.688C432.948 586.229 426.727 597.047 426.288 601.433C425.995 604.65 426.67 608.295 428.5 611Z" fill="black"/>
</svg>
